<?xml version="1.0" encoding="UTF-8"?>
<svg width="752pt" height="752pt" version="1.1" viewBox="0 0 752 752" xmlns="http://www.w3.org/2000/svg">
 <g>
  <rect width="752" height="752"/>
  <path d="m522.32 275.77h-292.64c-16.266-0.29297-31.172-9.1367-39.223-23.273-8.0508-14.137-8.0508-31.473 0-45.609 8.0508-14.137 22.957-22.98 39.223-23.273h292.64c16.266 0.29297 31.172 9.1367 39.223 23.273 8.0469 14.137 8.0469 31.473 0 45.609-8.0508 14.137-22.957 22.98-39.223 23.273zm-292.64-62.559c-5.7695 0.17578-11.027 3.3516-13.867 8.3789-2.8359 5.0273-2.8359 11.172 0 16.203 2.8398 5.0273 8.0977 8.2031 13.867 8.3789h292.64c5.7695-0.17578 11.027-3.3516 13.863-8.3789 2.8359-5.0312 2.8359-11.176 0-16.203-2.8359-5.0273-8.0938-8.2031-13.863-8.3789z" fill="#fff"/>
  <path d="m522.32 421.58h-292.64c-16.461 0-31.668-8.7812-39.898-23.035s-8.2305-31.816 0-46.07c8.2305-14.254 23.438-23.035 39.898-23.035h292.64c16.457 0 31.668 8.7812 39.898 23.035 8.2266 14.254 8.2266 31.816 0 46.07-8.2305 14.254-23.441 23.035-39.898 23.035zm-292.64-62.539c-5.8867 0-11.324 3.1367-14.266 8.2344-2.9414 5.0977-2.9414 11.375 0 16.473 2.9414 5.0938 8.3789 8.2344 14.266 8.2344h292.64c5.8828 0 11.32-3.1406 14.266-8.2344 2.9414-5.0977 2.9414-11.375 0-16.473-2.9453-5.0977-8.3828-8.2344-14.266-8.2344z" fill="#fff"/>
  <path d="m522.32 567.42h-292.64c-16.461 0-31.668-8.7812-39.898-23.035-8.2305-14.254-8.2305-31.816 0-46.07s23.438-23.035 39.898-23.035h292.64c16.457 0 31.668 8.7812 39.898 23.035 8.2266 14.254 8.2266 31.816 0 46.07-8.2305 14.254-23.441 23.035-39.898 23.035zm-292.64-62.543c-5.8867 0-11.324 3.1406-14.266 8.2344-2.9414 5.0977-2.9414 11.375 0 16.473 2.9414 5.0977 8.3789 8.2344 14.266 8.2344h292.64c5.8828 0 11.32-3.1367 14.266-8.2344 2.9414-5.0977 2.9414-11.375 0-16.473-2.9453-5.0938-8.3828-8.2344-14.266-8.2344z" fill="#fff"/>
 </g>
</svg>
