<?xml version="1.0" encoding="UTF-8"?>
<svg width="752pt" height="752pt" version="1.1" viewBox="0 0 752 752" xmlns="http://www.w3.org/2000/svg">
 <g>
  <rect width="752" height="752"/>
  <path d="m376 178.68c-52.332 0-102.52 20.789-139.53 57.797-37.008 37.004-57.797 87.195-57.797 139.53 0 52.336 20.789 102.53 57.797 139.53 37.004 37.008 87.195 57.797 139.53 57.797 52.336 0 102.53-20.789 139.53-57.797 37.008-37.004 57.797-87.195 57.797-139.53 0-34.637-9.1172-68.664-26.438-98.66-17.32-30-42.23-54.91-72.227-72.227-29.996-17.32-64.023-26.438-98.664-26.438zm0 355.19c-41.867 0-82.02-16.633-111.62-46.238-29.605-29.605-46.238-69.758-46.238-111.62s16.633-82.02 46.238-111.62c29.602-29.605 69.754-46.238 111.62-46.238s82.02 16.633 111.62 46.238c29.605 29.602 46.238 69.754 46.238 111.62s-16.633 82.02-46.238 111.62-69.758 46.238-111.62 46.238z" fill="#fff"/>
  <path d="m356.27 454.93h39.465v39.465h-39.465z" fill="#fff"/>
  <path d="m376 257.61c-18.316 0-35.883 7.2773-48.836 20.23-12.949 12.949-20.227 30.516-20.227 48.836h39.465c0-7.8516 3.1172-15.379 8.668-20.93 5.5508-5.5508 13.082-8.6719 20.93-8.6719 7.8516 0 15.379 3.1211 20.93 8.6719 5.5508 5.5508 8.6719 13.078 8.6719 20.93 0 7.8477-3.1211 15.375-8.6719 20.926-5.5508 5.5547-13.078 8.6719-20.93 8.6719-5.2305 0-10.25 2.0781-13.953 5.7773-3.6992 3.7031-5.7773 8.7227-5.7773 13.953v39.465h39.465v-22.594c21.395-6.3555 38.398-22.664 45.648-43.773 7.2461-21.109 3.8477-44.422-9.1289-62.582-12.98-18.16-33.934-28.93-56.254-28.91z" fill="#fff"/>
 </g>
</svg>
