<?xml version="1.0" encoding="UTF-8"?>
<svg width="752pt" height="752pt" version="1.1" viewBox="0 0 752 752" xmlns="http://www.w3.org/2000/svg">
 <g>
  <rect width="752" height="752"/>
  <path d="m407.77 568.39h-63.539c-11.199 0-21.938-4.4492-29.859-12.367-7.918-7.9219-12.367-18.66-12.367-29.859 0.082032-4.5664-2.3398-8.8086-6.3125-11.051-3.875-2.3867-8.7578-2.3867-12.629 0-9.7031 5.7148-21.297 7.2812-32.164 4.3398-10.793-2.9883-19.996-10.066-25.652-19.734l-31.77-55.051c-5.5859-9.6875-7.1016-21.191-4.2148-31.992 2.8828-10.801 9.9336-20.02 19.605-25.629 4.0508-2.1914 6.5547-6.4453 6.5117-11.051 0.054688-4.5039-2.3711-8.6719-6.3164-10.852-9.7148-5.6172-16.812-14.852-19.734-25.688-2.9219-10.836-1.4297-22.391 4.1484-32.129l31.77-55.055c5.6562-9.6641 14.859-16.742 25.652-19.73 10.934-2.6602 22.484-0.73828 31.965 5.3281 3.957 2.5273 8.9766 2.6914 13.09 0.42969 4.1094-2.2617 6.6602-6.5898 6.6445-11.285-0.054687-11.23 4.3711-22.023 12.297-29.984 7.9258-7.9648 18.695-12.441 29.93-12.438h63.539c11.199 0 21.941 4.4453 29.859 12.367 7.918 7.918 12.367 18.66 12.367 29.859-0.082032 4.5625 2.3398 8.8047 6.3164 11.051 3.8711 2.3828 8.7539 2.3828 12.629 0 9.6992-5.7188 21.293-7.2812 32.164-4.3438 10.793 2.9883 19.996 10.066 25.652 19.734l31.77 55.055c5.582 9.6836 7.0977 21.188 4.2148 31.988-2.8867 10.801-9.9375 20.02-19.609 25.629-4.0469 2.1914-6.5547 6.4453-6.5117 11.051-0.050782 4.5039 2.375 8.6719 6.3164 10.852 9.7188 5.6172 16.812 14.852 19.734 25.691 2.9219 10.836 1.4297 22.387-4.1445 32.125l-31.77 55.055c-5.6562 9.668-14.859 16.746-25.652 19.734-10.805 2.9531-22.344 1.3828-31.969-4.3438-3.9531-2.5273-8.9727-2.6914-13.086-0.42969s-6.6641 6.5898-6.6445 11.285c-0.20703 11.059-4.75 21.598-12.645 29.348-7.8984 7.75-18.52 12.09-29.586 12.09zm-118.39-84.652c7.418 0.027343 14.699 2 21.113 5.7227 6.4375 3.668 11.785 8.9805 15.496 15.395 3.707 6.4141 5.6484 13.699 5.6172 21.109 0 7.0078 5.625 12.719 12.629 12.824h63.539c3.3516 0 6.5625-1.3281 8.9297-3.6953 2.3711-2.3711 3.6992-5.582 3.6992-8.9297-0.042969-7.4414 1.8906-14.758 5.5977-21.207 3.7109-6.4492 9.0664-11.797 15.516-15.496 6.3945-3.7852 13.688-5.7852 21.117-5.7852 7.4258 0 14.719 2 21.113 5.7852 2.8984 1.7148 6.3672 2.2031 9.6289 1.3516 3.2617-0.85156 6.0469-2.9727 7.7344-5.8906l32.758-55.055c1.707-2.8711 2.1875-6.3086 1.3359-9.5352-0.85547-3.2305-2.9727-5.9805-5.875-7.6328-8.6211-4.957-15.215-12.797-18.617-22.141-3.4062-9.3398-3.4062-19.586 0-28.926 3.4023-9.3438 9.9961-17.184 18.617-22.141 2.918-1.6875 5.0391-4.4727 5.8906-7.7344 0.85156-3.2617 0.36328-6.7305-1.3516-9.6289l-32.758-55.055c-1.6914-2.9062-4.4531-5.0312-7.6953-5.9219-3.2148-0.84375-6.6328-0.34375-9.4727 1.3828-13.082 7.5078-29.168 7.5039-42.25-0.011718-13.078-7.5156-21.184-21.41-21.289-36.492 0.003906-7.0078-5.6211-12.719-12.629-12.828h-63.539c-6.9727 0-12.629 5.6562-12.629 12.629 0.046876 7.4414-1.8867 14.758-5.5977 21.207-3.707 6.4453-9.0625 11.793-15.516 15.496-6.3906 3.7852-13.684 5.7812-21.113 5.7812s-14.723-1.9961-21.113-5.7812c-2.9023-1.7188-6.3672-2.2031-9.6289-1.3516-3.2617 0.85156-6.0469 2.9727-7.7344 5.8906l-31.77 55.055c-1.7109 2.8672-2.1914 6.3047-1.3398 9.5352 0.85547 3.2305 2.9727 5.9805 5.8789 7.6328 8.6172 4.957 15.211 12.797 18.617 22.137 3.4062 9.3438 3.4062 19.586 0 28.93-3.4062 9.3398-10 17.18-18.617 22.141-2.9531 1.6562-5.1172 4.4258-6.0039 7.6875-0.89062 3.2656-0.43359 6.75 1.2656 9.6758l31.77 55.055c1.6914 2.9062 4.4531 5.0312 7.6953 5.918 3.2148 0.84766 6.6328 0.34766 9.4727-1.3789 6.5547-3.7383 13.965-5.707 21.508-5.7227z" fill="#fff"/>
  <path d="m376 450c-19.625 0-38.445-7.7969-52.324-21.676-13.875-13.875-21.672-32.699-21.672-52.324s7.7969-38.445 21.672-52.324c13.879-13.875 32.699-21.672 52.324-21.672s38.449 7.7969 52.324 21.672c13.879 13.879 21.676 32.699 21.676 52.324s-7.7969 38.449-21.676 52.324c-13.875 13.879-32.699 21.676-52.324 21.676zm0-118.39v-0.003907c-11.773 0-23.066 4.6797-31.395 13.004-8.3242 8.3281-13.004 19.621-13.004 31.395 0 11.777 4.6797 23.07 13.004 31.395 8.3281 8.3281 19.621 13.004 31.395 13.004 11.777 0 23.07-4.6758 31.395-13.004 8.3281-8.3242 13.004-19.617 13.004-31.395 0-11.773-4.6758-23.066-13.004-31.395-8.3242-8.3242-19.617-13.004-31.395-13.004z" fill="#fff"/>
 </g>
</svg>
